<svg width="34" height="34" viewBox="0 0 34 34" fill="none" xmlns="http://www.w3.org/2000/svg">
<rect width="34" height="34" rx="17" fill="#44545F"/>
<path fill-rule="evenodd" clip-rule="evenodd" d="M18.6875 10.25C18.6875 9.93934 18.9393 9.6875 19.25 9.6875H23.75C24.0607 9.6875 24.3125 9.93934 24.3125 10.25V14.75C24.3125 15.0607 24.0607 15.3125 23.75 15.3125C23.4393 15.3125 23.1875 15.0607 23.1875 14.75V11.608L18.8978 15.8977C18.6781 16.1174 18.3219 16.1174 18.1023 15.8977C17.8826 15.6781 17.8826 15.3219 18.1023 15.1023L22.392 10.8125H19.25C18.9393 10.8125 18.6875 10.5607 18.6875 10.25ZM15.8977 18.1023C16.1174 18.3219 16.1174 18.6781 15.8977 18.8978L11.608 23.1875H14.75C15.0607 23.1875 15.3125 23.4393 15.3125 23.75C15.3125 24.0607 15.0607 24.3125 14.75 24.3125H10.25C9.93934 24.3125 9.6875 24.0607 9.6875 23.75V19.25C9.6875 18.9393 9.93934 18.6875 10.25 18.6875C10.5607 18.6875 10.8125 18.9393 10.8125 19.25V22.392L15.1023 18.1023C15.3219 17.8826 15.6781 17.8826 15.8977 18.1023Z" fill="white"/>
</svg>
