<svg width="131" height="24" viewBox="0 0 131 24" fill="none" xmlns="http://www.w3.org/2000/svg">
<path d="M67.9192 19V6.35877H71.1035C72.5357 6.35877 73.6547 6.62093 74.4604 7.14525C75.2788 7.66957 75.6881 8.58393 75.6881 9.88834C75.6881 11.1288 75.2852 12.056 74.4796 12.6698C73.6867 13.2708 72.5869 13.5714 71.1802 13.5714H68.8016V19H67.9192ZM68.8016 12.8233H70.9692C72.2608 12.8233 73.2199 12.5931 73.8465 12.1327C74.4732 11.6723 74.7865 10.9242 74.7865 9.88834C74.7865 8.82691 74.4604 8.09798 73.8082 7.70154C73.1688 7.3051 72.1969 7.10688 70.8924 7.10688H68.8016V12.8233ZM79.4474 19.2302C78.7184 19.2302 78.0918 19.0256 77.5675 18.6164C77.0432 18.2071 76.781 17.5677 76.781 16.6981C76.781 15.675 77.2606 14.9014 78.2197 14.377C79.1788 13.8399 80.6814 13.4563 82.7276 13.2261C82.7404 12.7529 82.6892 12.2989 82.5741 11.8641C82.459 11.4165 82.2416 11.0457 81.9219 10.7515C81.615 10.4574 81.1546 10.3104 80.5408 10.3104C79.9269 10.3104 79.3642 10.4318 78.8527 10.6748C78.3412 10.9178 77.9256 11.1544 77.6059 11.3846L77.2222 10.7515C77.4396 10.5981 77.721 10.4318 78.0662 10.2528C78.4115 10.061 78.8016 9.90113 79.2364 9.77324C79.684 9.63257 80.1571 9.56224 80.6559 9.56224C81.3848 9.56224 81.9603 9.72209 82.3823 10.0418C82.8043 10.3615 83.1048 10.7899 83.2839 11.327C83.4757 11.8513 83.5716 12.446 83.5716 13.111V19H82.8427L82.7659 17.8107H82.7084C82.2352 18.1815 81.7237 18.514 81.1738 18.8082C80.6239 19.0895 80.0484 19.2302 79.4474 19.2302ZM79.6008 18.5013C80.1252 18.5013 80.6303 18.3734 81.1162 18.1176C81.615 17.8618 82.1521 17.491 82.7276 17.005V13.8783C81.4615 14.0317 80.4576 14.23 79.7159 14.4729C78.9742 14.7159 78.4435 15.0228 78.1238 15.3937C77.8041 15.7518 77.6442 16.1738 77.6442 16.6597C77.6442 17.3247 77.836 17.7979 78.2197 18.0792C78.6161 18.3606 79.0765 18.5013 79.6008 18.5013ZM86.8558 19V9.79242H87.5848L87.6615 11.2119H87.7191C88.1922 10.7388 88.6782 10.3487 89.1769 10.0418C89.6885 9.72209 90.2575 9.56224 90.8842 9.56224C91.8305 9.56224 92.5275 9.85637 92.975 10.4446C93.4354 11.0201 93.6656 11.9025 93.6656 13.0918V19H92.8216V13.2069C92.8216 12.2222 92.6553 11.4997 92.3228 11.0393C92.0031 10.5661 91.466 10.3295 90.7115 10.3295C90.1616 10.3295 89.6629 10.4766 89.2153 10.7707C88.7677 11.0521 88.2626 11.4805 87.6999 12.056V19H86.8558ZM100.556 19.2302C99.7764 19.2302 99.0602 19.0384 98.408 18.6547C97.7686 18.2711 97.2571 17.7212 96.8734 17.005C96.4898 16.2761 96.298 15.4129 96.298 14.4154C96.298 13.4051 96.4898 12.5419 96.8734 11.8258C97.2571 11.0968 97.7558 10.5405 98.3697 10.1569C98.9835 9.76045 99.6293 9.56224 100.307 9.56224C101.407 9.56224 102.27 9.9331 102.897 10.6748C103.523 11.4165 103.837 12.4652 103.837 13.8207C103.837 13.9358 103.83 14.0509 103.817 14.166C103.817 14.2811 103.805 14.3962 103.779 14.5113H97.1612C97.174 15.2786 97.321 15.9628 97.6024 16.5638C97.8965 17.1649 98.2993 17.638 98.8109 17.9833C99.3352 18.3286 99.9426 18.5013 100.633 18.5013C101.132 18.5013 101.58 18.4245 101.976 18.2711C102.385 18.1176 102.762 17.9194 103.108 17.6764L103.453 18.3286C103.095 18.546 102.692 18.7506 102.245 18.9425C101.797 19.1343 101.234 19.2302 100.556 19.2302ZM97.1612 13.8207H103.031C103.031 12.6442 102.788 11.7618 102.302 11.1736C101.816 10.5853 101.158 10.2912 100.326 10.2912C99.8019 10.2912 99.3096 10.4318 98.8492 10.7132C98.4016 10.9945 98.0244 11.3974 97.7175 11.9217C97.4105 12.446 97.2251 13.079 97.1612 13.8207ZM107.47 19.2302C106.715 19.2302 106.338 18.7442 106.338 17.7723V5.20782H107.182V17.8874C107.182 18.2839 107.316 18.4821 107.585 18.4821C107.623 18.4821 107.668 18.4821 107.719 18.4821C107.77 18.4693 107.841 18.4565 107.93 18.4437L108.084 19.1343C107.994 19.1599 107.905 19.179 107.815 19.1918C107.726 19.2174 107.61 19.2302 107.47 19.2302ZM119.027 19.2302C118.49 19.2302 117.966 19.1535 117.454 19C116.955 18.8338 116.502 18.5588 116.092 18.1752C115.696 17.7915 115.376 17.2736 115.133 16.6214C114.903 15.9564 114.788 15.1315 114.788 14.1468V6.35877H115.67V14.0509C115.67 15.1635 115.824 16.0395 116.131 16.6789C116.45 17.3183 116.866 17.7723 117.378 18.0409C117.889 18.2966 118.439 18.4245 119.027 18.4245C119.641 18.4245 120.21 18.2966 120.734 18.0409C121.259 17.7723 121.681 17.3183 122 16.6789C122.32 16.0395 122.48 15.1635 122.48 14.0509V6.35877H123.305V14.1468C123.305 15.1315 123.183 15.9564 122.94 16.6214C122.71 17.2736 122.391 17.7915 121.981 18.1752C121.585 18.5588 121.131 18.8338 120.619 19C120.108 19.1535 119.577 19.2302 119.027 19.2302ZM126.984 19V6.35877H127.866V19H126.984Z" fill="#44545F"/>
<path fill-rule="evenodd" clip-rule="evenodd" d="M14.3606 13.2425C14.3606 9.04475 11.2548 5.77514 7.26024 5.77514C3.34588 5.77514 0.159912 9.12778 0.159912 13.2425C0.159912 17.3744 3.34284 20.7302 7.26024 20.7302C11.1776 20.7302 14.3606 17.3744 14.3606 13.2425ZM13.3726 13.2425C13.3726 16.8426 10.6385 19.7627 7.26027 19.7627C3.87132 19.7627 1.12751 16.8517 1.12751 13.2425C1.12751 9.66397 3.88092 6.74274 7.26027 6.74274C10.6889 6.74274 13.3726 9.59149 13.3726 13.2425Z" fill="#E57D85"/>
<path fill-rule="evenodd" clip-rule="evenodd" d="M46.6338 16.4641C46.6338 18.833 44.9081 20.4856 42.4289 20.4856H36.1849V6.1218H42.3065C44.7295 6.1218 46.226 7.51393 46.226 9.77622C46.226 11.1816 45.5479 12.3089 44.3932 12.9053C45.8391 13.5 46.6338 14.7424 46.6338 16.4641ZM37.1526 12.4835H42.3678C44.0207 12.4835 45.2585 11.4697 45.2585 9.77623C45.2585 8.0652 44.1888 7.08937 42.3066 7.08937H37.1526V12.4835ZM45.6663 16.4641C45.6663 18.3815 44.2891 19.518 42.4289 19.518H37.1526V13.4306H42.3678C44.466 13.4306 45.6663 14.5415 45.6663 16.4641Z" fill="#E57D85"/>
<path d="M29.0964 5.75475C31.6799 5.75475 33.7704 7.85809 33.7704 10.4491V20.4855H32.8028V10.4491C32.8028 8.39043 31.1408 6.72231 29.0964 6.72231C27.0215 6.72231 25.3697 8.3802 25.3697 10.4491V20.4855H24.4021V10.4491C24.4021 8.39755 22.7269 6.72231 20.6958 6.72231C18.6341 6.72231 16.969 8.38736 16.969 10.4491V20.4855H16.0015V10.4491C16.0015 7.86184 18.1086 5.75475 20.6958 5.75475C22.5212 5.75475 24.1199 6.81444 24.8948 8.45034C25.6513 6.81484 27.2518 5.75475 29.0964 5.75475Z" fill="#E57D85"/>
<path d="M59.7853 6.1218V15.3223C59.7853 18.5088 57.507 20.7506 54.255 20.7506C51.0163 20.7506 48.7247 18.5018 48.7247 15.3223V6.1218H49.6923V15.3223C49.6923 17.9705 51.536 19.7627 54.255 19.7627C56.9871 19.7627 58.8178 17.9777 58.8178 15.3223V6.1218H59.7853Z" fill="#E57D85"/>
</svg>
