<svg width="18" height="18" viewBox="0 0 18 18" fill="none" xmlns="http://www.w3.org/2000/svg">
<path d="M9 2H14C14.5304 2 15.0391 2.21071 15.4142 2.58579C15.7893 2.96086 16 3.46957 16 4V14C16 14.5304 15.7893 15.0391 15.4142 15.4142C15.0391 15.7893 14.5304 16 14 16H9" stroke="#879CAB" stroke-width="1.2" stroke-linecap="round" stroke-linejoin="round"/>
<path d="M9 2H4C3.46957 2 2.96086 2.21071 2.58579 2.58579C2.21071 2.96086 2 3.46957 2 4V14C2 14.5304 2.21071 15.0391 2.58579 15.4142C2.96086 15.7893 3.46957 16 4 16H9" stroke="#879CAB" stroke-width="1.2" stroke-linecap="round" stroke-linejoin="round"/>
<path d="M9 16V2" stroke="#879CAB" stroke-width="1.2"/>
</svg>
